<svg width="26" height="20" viewBox="0 0 26 20" fill="none" xmlns="http://www.w3.org/2000/svg">
<path d="M21.6987 1.87949C20.0544 1.11011 18.3148 0.563438 16.5259 0.253916C16.3031 0.656759 16.0428 1.19858 15.8632 1.62963C13.9345 1.33962 12.0236 1.33962 10.1303 1.62963C9.95087 1.19868 9.68466 0.656759 9.45978 0.253916C7.66917 0.56358 5.92808 1.11165 4.28296 1.8835C1.00929 6.83055 0.121818 11.6546 0.565504 16.4103C2.73682 18.0318 4.84104 19.0168 6.90981 19.6614C7.42395 18.9543 7.87844 18.2058 8.26859 17.4235C7.52581 17.1407 6.80974 16.7922 6.12891 16.3821C6.30808 16.2493 6.48302 16.1109 6.65349 15.9671C10.7791 17.8968 15.2618 17.8968 19.3382 15.9671C19.5094 16.11 19.6843 16.2484 19.8627 16.3821C19.1808 16.7933 18.4634 17.1425 17.7191 17.4255C18.1115 18.211 18.5651 18.9603 19.0779 19.6633C21.1486 19.0189 23.2548 18.0339 25.4261 16.4103C25.9468 10.8973 24.5368 6.11752 21.6987 1.87949ZM8.83069 13.4856C7.59219 13.4856 6.57651 12.3294 6.57651 10.9215C6.57651 9.51352 7.57054 8.35534 8.83069 8.35534C10.0909 8.35534 11.1065 9.51147 11.0849 10.9215C11.0868 12.3294 10.0909 13.4856 8.83069 13.4856ZM17.1609 13.4856C15.9224 13.4856 14.9068 12.3294 14.9068 10.9215C14.9068 9.51352 15.9008 8.35534 17.1609 8.35534C18.4211 8.35534 19.4367 9.51147 19.4151 10.9215C19.4151 12.3294 18.4211 13.4856 17.1609 13.4856Z" fill="#5865F2"/>
</svg>
