<svg width="22" height="21" viewBox="0 0 22 21" fill="none" xmlns="http://www.w3.org/2000/svg">
<path d="M11.2669 0.552002C9.89495 0.552002 8.53642 0.82223 7.2689 1.34726C6.00137 1.87229 4.84966 2.64183 3.87953 3.61196C1.92028 5.57121 0.81958 8.22853 0.81958 10.9993C0.81958 15.6171 3.81797 19.5348 7.96556 20.9243C8.48793 21.0079 8.65508 20.684 8.65508 20.4019V18.6363C5.76117 19.2632 5.14478 17.2364 5.14478 17.2364C4.6642 16.0245 3.98512 15.7006 3.98512 15.7006C3.03442 15.0529 4.05825 15.0738 4.05825 15.0738C5.10299 15.1469 5.6567 16.1499 5.6567 16.1499C6.56562 17.7379 8.10138 17.2677 8.69687 17.017C8.7909 16.3379 9.06253 15.8782 9.35506 15.6171C7.03575 15.3559 4.60152 14.4574 4.60152 10.477C4.60152 9.31732 4.99852 8.38751 5.67759 7.64574C5.57312 7.38456 5.20746 6.29804 5.78207 4.88765C5.78207 4.88765 6.65964 4.60557 8.65508 5.95328C9.48042 5.72343 10.3789 5.60851 11.2669 5.60851C12.1549 5.60851 13.0534 5.72343 13.8788 5.95328C15.8742 4.60557 16.7518 4.88765 16.7518 4.88765C17.3264 6.29804 16.9607 7.38456 16.8562 7.64574C17.5353 8.38751 17.9323 9.31732 17.9323 10.477C17.9323 14.4679 15.4876 15.3454 13.1579 15.6066C13.534 15.9305 13.8788 16.5678 13.8788 17.5394V20.4019C13.8788 20.684 14.0459 21.0183 14.5787 20.9243C18.7263 19.5244 21.7143 15.6171 21.7143 10.9993C21.7143 9.62738 21.444 8.26885 20.919 7.00132C20.394 5.73379 19.6244 4.58208 18.6543 3.61196C17.6842 2.64183 16.5325 1.87229 15.2649 1.34726C13.9974 0.82223 12.6389 0.552002 11.2669 0.552002Z" fill="white"/>
</svg>
