<svg width="26" height="26" viewBox="0 0 26 26" fill="none" xmlns="http://www.w3.org/2000/svg">
<g clip-path="url(#clip0_1_7118)">
<path d="M24.8296 13.2881C24.8296 12.4359 24.7605 11.5791 24.6131 10.7407H12.788V15.5684H19.5597C19.2787 17.1254 18.3758 18.5028 17.0537 19.378V22.5105H21.0937C23.4661 20.327 24.8296 17.1024 24.8296 13.2881Z" fill="#4285F4"/>
<path d="M12.7889 25.537C16.1701 25.537 19.0216 24.4268 21.0992 22.5105L17.0592 19.378C15.9352 20.1427 14.4841 20.5757 12.7935 20.5757C9.52283 20.5757 6.74967 18.3692 5.75465 15.4025H1.58569V18.6317C3.71393 22.8652 8.04873 25.537 12.7889 25.537Z" fill="#34A853"/>
<path d="M5.74911 15.4025C5.22396 13.8455 5.22396 12.1595 5.74911 10.6024V7.37322H1.58476C-0.193375 10.9157 -0.193375 15.0892 1.58476 18.6317L5.74911 15.4025Z" fill="#FBBC04"/>
<path d="M12.7889 5.42466C14.5763 5.39702 16.3037 6.06958 17.5982 7.30415L21.1775 3.72483C18.911 1.5966 15.9029 0.426524 12.7889 0.463377C8.04873 0.463377 3.71393 3.13519 1.58569 7.37325L5.75004 10.6025C6.74046 7.63121 9.51822 5.42466 12.7889 5.42466Z" fill="#EA4335"/>
</g>
<defs>
<clipPath id="clip0_1_7118">
<rect width="25.0736" height="25.0736" fill="white" transform="translate(0.000732422 0.462543)"/>
</clipPath>
</defs>
</svg>
