<?xml version="1.0" standalone="no"?>
<!DOCTYPE svg PUBLIC "-//W3C//DTD SVG 20010904//EN"
 "http://www.w3.org/TR/2001/REC-SVG-20010904/DTD/svg10.dtd">
<svg version="1.0" xmlns="http://www.w3.org/2000/svg"
 width="64.000000pt" height="64.000000pt" viewBox="0 0 64.000000 64.000000"
 preserveAspectRatio="xMidYMid meet">

<g transform="translate(0.000000,64.000000) scale(0.100000,-0.100000)"
fill="#fff" stroke="none">
<path d="M208 472 c-116 -98 -125 -109 -111 -130 19 -31 40 -23 132 53 l91 77
91 -77 c92 -76 113 -84 133 -53 8 13 6 21 -7 36 -11 12 -17 35 -17 65 0 75
-45 102 -76 45 -9 -16 -15 -14 -58 22 -26 22 -56 40 -66 40 -10 0 -61 -35
-112 -78z"/>
<path d="M215 349 l-97 -82 4 -49 c3 -26 13 -57 23 -68 22 -25 79 -36 111 -21
20 9 24 18 24 55 0 62 7 76 40 76 33 0 40 -14 40 -76 0 -37 4 -46 24 -55 32
-15 89 -4 111 21 10 11 20 42 23 68 l4 49 -97 82 c-53 44 -100 81 -105 81 -5
0 -52 -37 -105 -81z"/>
</g>
</svg>
